<svg xmlns="http://www.w3.org/2000/svg" viewBox="0 0 100 100">
  <rect width="100" height="100" rx="22" fill="#EAE0F5"/>
  <g transform="translate(18, 18) scale(2.6)" stroke="#5E3B8A" stroke-width="2" stroke-linecap="round" stroke-linejoin="round" fill="none">
    <path d="M20 21v-8a2 2 0 0 0-2-2H6a2 2 0 0 0-2 2v8"/>
    <path d="M4 16s.5-1 2-1 2.5 2 4 2 2.5-2 4-2 2.5 2 4 2 2-1 2-1"/>
    <path d="M2 21h20"/>
    <path d="M7 8v3"/>
    <path d="M12 8v3"/>
    <path d="M17 8v3"/>
    <path d="M7 4h.01" stroke-width="3"/>
    <path d="M12 4h.01" stroke-width="3"/>
    <path d="M17 4h.01" stroke-width="3"/>
  </g>
</svg>
